<svg data-name="Layer 1" xmlns="http://www.w3.org/2000/svg" viewBox="0 0 625.04 154.58">
    <path d="M223.42 26c19.56 0 1 80.74-24.11 80.74-23.38 0 2.34-80.74 24.11-80.74zm-48.18 114 6.91-23.5a28.06 28.06 0 0 0 13.39 3.15c9.41 0 19.08-3.84 27.09-10 12.77-9.87 21.67-32.06 26.19-52.54 12.54-56.8-50.38-52.76-69.16.36-3.11 8.8-5.63 17.67-7.63 25-8.78 32-5.19 16.69-11 39.32C158 133.48 164 140 175.24 140zM291.53 53.24c10.4 0 10 22.81 3.62 44.19h18.3c1.36-4.38 2.52-8.82 3.48-13.17 12-54.28-44.7-52.93-66.36-6.45-4.8 10.3-10.06 24.79-11.14 36.31-1.32 14 5.81 23.55 18.13 25.48 21 3.3 26.94-15.85 25.87-20.65-9.38 12-29.15 9-25.06-6.18 2.17-9.88 3.32-17.78 6.85-27.09 6.55-17.24 16.86-32.44 26.31-32.44z"
          fill="#c1111d" fill-rule="evenodd"></path>
    <path d="M313.66 97c-1 3.57-4.47 6.39-9.39 7a18.07 18.07 0 0 1-6.71-.49c-5.59-1.23-16.46-2.47-29.42-2.78.36-17.42 25.71-18.19 36.6-14.89C311.81 88 314.22 95 313.66 97zM327.22 140l37-124h-19.9c-.31 1-13.43 46-13.73 47l-16.1 53.16c-4.43 14.67-.28 23.84 12.73 23.84zM529.17 140l29-96.64h-19.85C538 44.31 532.9 62 532.6 63l-16.14 53.16c-4.46 14.67-.3 23.84 12.71 23.84zM395.21 52.68c-19.56 0-48.49 75.3-23.4 75.3 8.92 0 17.61-11 23.74-24.52.46-1 8.89-24.94 9.32-26 4.85-11.56 20.41-6.82 17.65 2.11-.51 1.45-9 25.76-9.61 27.17C405.54 125 393.34 140 368 140c-35.71 0-24.13-38.9-16.46-58.35 10.28-26.07 30.16-38.51 46.21-38.28 18.56.27 21.6 17.2 9 24.79-1.3.78-2.53 0-2.69-3.42-.63-7.24-3.34-12.06-8.85-12.06zM598.06 52.68c-19.57 0-48.5 75.3-23.4 75.3 23.38 0 45.16-75.3 23.4-75.3zM570.87 140c-35.7 0-24.12-38.9-16.46-58.35 20.89-53 81.43-49.2 69 .34-6.85 26.95-16.09 58.01-52.54 58.01zM438.8 130.66l85.43-72.14a7.49 7.49 0 0 1-6.3-6.12c-1.64.36-19 6.18-22.94 6.18 3.25.26 4.47 1.86 1.78 4.12l-48.45 40.63c-14.39 12.06-16.76 16.54-28.49 22.06-7.65 3.61 10.01 5.27 18.97 5.27z"
          fill="#c1111d" fill-rule="evenodd"></path>
    <path d="M519.41 47c-1.89-2.26-5.27-3.81-9.63-4-23 7.49-56.9 10.13-87.43 3.46.45 5.27 3 14.74 14 17.13 27.76 6 76.2-.82 85.33-3.71 6.8-2.21.7-9.36-2.27-12.88zM404.32 140c.74-9.46 3.27-17 9.51-35.72l-20.69 6.82-1.54 5.08c-4.45 14.65-.28 23.82 12.72 23.82zM412.56 136.83c1 3.77 4.47 6.76 9.39 7.45a17 17 0 0 0 6.7-.47c15.55-3.54 71.86-6.81 100.35 10.76-23.63-35.05-123.43-43.82-116.44-17.74zM552.44.14C560.5-.95 567 4.7 567 12.76a17.22 17.22 0 0 1-14.56 16.54c-8 1.08-14.58-4.57-14.58-12.62A17.21 17.21 0 0 1 552.44.14zM58.17 8.76C24.34 10 0 41.36 0 76.81a77.21 77.21 0 0 0 70.46 76.92c-21.73-10.45-36.29-32.67-36.72-58.38-.2-11.84 3.88-23.63 8.7-32.69a49 49 0 0 0-3.65 19.17c-.46 31.76 25.75 57.51 57.51 57.51a57.53 57.53 0 0 0 54.75-39.86 75.94 75.94 0 0 0 3.37-22.65C154.27 36.41 122.84 1.23 77.53 0h-1.72C86.88 4.81 92 9.88 97.42 20.61 87.56 13.14 76.21 8.1 58.17 8.76zM108.32 45c10.52-7.22 24-1.73 30.23 12.26s1.84 31-8.68 38.26c-9.61 5.59-23.23 1.89-29.41-12.1S97.83 52.18 108.32 45z"
          fill="#c1111d" fill-rule="evenodd"></path>
</svg>